<svg xmlns="http://www.w3.org/2000/svg" xmlns:xlink="http://www.w3.org/1999/xlink" aria-hidden="true" role="img" class="iconify iconify--logos" width="35.93" height="32" preserveAspectRatio="xMidYMid meet" viewBox="0 0 256 228"><path fill="#00D8FF" d="M210.483 73.824a171.49 171.49 0 0 0-8.24-2.597c.465-1.9.893-3.777 1.273-5.621c6.238-30.281 2.16-54.676-11.769-62.708c-13.355-7.7-35.196.329-57.254 19.526a171.23 171.23 0 0 0-6.375 5.848a155.866 155.866 0 0 0-4.241-3.917C100.759 3.829 77.587-4.822 63.673 3.233C50.33 10.957 46.379 33.89 51.986 62.588a170.974 170.974 0 0 0 1.892 8.48c-3.28.932-6.445 1.924-9.474 2.98C17.309 83.498 0 98.307 0 113.668c0 15.865 18.582 31.778 46.812 41.427a145.52 145.52 0 0 0 6.921 2.165a167.467 167.467 0 0 0-2.01 9.138c-5.354 28.2-1.173 50.591 12.134 58.266c13.744 7.926 36.812-.22 59.273-19.855a145.567 145.567 0 0 0 5.342-4.923a168.064 168.064 0 0 0 6.92 6.314c21.758 18.722 43.246 26.282 56.54 18.586c13.731-7.949 18.194-32.003 12.4-61.268a145.016 145.016 0 0 0-1.535-6.842c1.62-.48 3.21-.974 4.76-1.488c29.348-9.723 48.443-25.443 48.443-41.52c0-15.417-17.868-30.326-45.517-39.844Zm-6.365 70.984c-1.4.463-2.836.91-4.3 1.345c-3.24-10.257-7.612-21.163-12.963-32.432c5.106-11 9.31-21.767 12.459-31.957a145.89 145.89 0 0 1 7.535 2.346c14.421 5.239 24.377 12.042 29.152 18.535c-5.066 7.078-15.881 14.394-31.883 22.163ZM85.714 213.73c-6.228 1.807-12.209 3.281-17.918 4.404c-16.21 3.19-29.291 2.471-36.076-1.442c-7.219-4.164-10.455-17.055-7.096-35.337c.579-3.15 1.337-6.508 2.265-10.05c10.07 2.528 21.155 4.39 33.02 5.551c7.1 9.834 14.607 18.787 22.36 26.678a133.087 133.087 0 0 1-5.555 5.196h9Zm-16.157-74.963c-3.725-6.453-7.213-13.074-10.44-19.811c3.182-6.69 6.627-13.267 10.313-19.679c6.977-12.112 14.658-23.179 22.674-32.983c10.394-1.104 21.372-1.695 32.696-1.695c11.39 0 22.42.589 32.852 1.688c7.978 9.744 15.647 20.782 22.644 32.905c3.723 6.453 7.21 13.073 10.44 19.811c-3.182 6.69-6.628 13.267-10.314 19.679c-6.977 12.112-14.658 23.179-22.674 32.983c-10.394 1.104-21.372 1.695-32.696 1.695c-11.39 0-22.42-.589-32.852-1.688c-7.978-9.744-15.647-20.782-22.644-32.905ZM128 94.116c-4.753 0-8.607 3.854-8.607 8.607c0 4.753 3.854 8.607 8.607 8.607c4.753 0 8.607-3.854 8.607-8.607c0-4.753-3.854-8.607-8.607-8.607Zm0 39.327c-16.97 0-30.72-13.75-30.72-30.72S111.03 72.004 128 72.004s30.72 13.75 30.72 30.72s-13.75 30.72-30.72 30.72ZM80.575 22.131c7.135-3.982 20.596-1.95 36.276 6.395c5.682 3.02 11.563 6.765 17.494 11.14a168.685 168.685 0 0 0-4.529 4.266c-8.086 7.905-15.675 16.808-22.491 26.568c-11.822 1.148-22.88 2.997-32.92 5.527c-.893-3.244-1.62-6.346-2.172-9.278c-3.489-18.473-.69-31.58 8.342-44.618ZM175.364 116.395c3.725 6.453 7.213 13.074 10.44 19.811c-3.182 6.69-6.627 13.267-10.313 19.679c-6.977 12.112-14.658 23.179-22.674 32.983a303.091 303.091 0 0 1-15.852.844h-17.836c-5.326 0-10.603-.168-15.817-.496c-7.978-9.744-15.647-20.782-22.644-32.905c-3.725-6.453-7.213-13.074-10.44-19.811c3.182-6.69 6.628-13.267 10.314-19.679c6.977-12.112 14.658-23.179 22.674-32.983c10.394-1.104 21.372-1.695 32.696-1.695c11.39 0 22.42.589 32.852 1.688c7.978 9.744 15.647 20.782 22.644 32.905Z"></path></svg>
